PathFileType	4	(X/Y/Z)	..\data\2015043\dynamic\2015043_C4_04.trc
DataRate	CameraRate	NumFrames	NumMarkers	Units	OrigDataRate	OrigDataStartFrame	OrigNumFrames
100.000000	100.000000	4	52	mm	100.000000	87	232
Frame#	Time	L_IAS			L_IPS			R_IPS			R_IAS			L_FTC			L_FLE			L_FME			L_FAX			L_TTC			L_FAL			L_TAM			L_FCC			L_FM1			L_FM2			L_FM5			R_FTC			R_FLE			R_FME			R_FAX			R_TTC			R_FAL			R_TAM			R_FCC			R_FM1			R_FM2			R_FM5			CV7			TV10			SXS			SJN			L_SIA			L_SRS			L_SAA			L_SAE			L_HLE			L_HME			L_UOA			L_RSP			L_UHE			L_HM2			L_HM5			R_SIA			R_SRS			R_SAA			R_SAE			R_HLE			R_HME			R_UOA			R_RSP			R_UHE			R_HM2			R_HM5			
		X1	Y1	Z1	X2	Y2	Z2	X3	Y3	Z3	X4	Y4	Z4	X5	Y5	Z5	X6	Y6	Z6	X7	Y7	Z7	X8	Y8	Z8	X9	Y9	Z9	X10	Y10	Z10	X11	Y11	Z11	X12	Y12	Z12	X13	Y13	Z13	X14	Y14	Z14	X15	Y15	Z15	X16	Y16	Z16	X17	Y17	Z17	X18	Y18	Z18	X19	Y19	Z19	X20	Y20	Z20	X21	Y21	Z21	X22	Y22	Z22	X23	Y23	Z23	X24	Y24	Z24	X25	Y25	Z25	X26	Y26	Z26	X27	Y27	Z27	X28	Y28	Z28	X29	Y29	Z29	X30	Y30	Z30	X31	Y31	Z31	X32	Y32	Z32	X33	Y33	Z33	X34	Y34	Z34	X35	Y35	Z35	X36	Y36	Z36	X37	Y37	Z37	X38	Y38	Z38	X39	Y39	Z39	X40	Y40	Z40	X41	Y41	Z41	X42	Y42	Z42	X43	Y43	Z43	X44	Y44	Z44	X45	Y45	Z45	X46	Y46	Z46	X47	Y47	Z47	X48	Y48	Z48	X49	Y49	Z49	X50	Y50	Z50	X51	Y51	Z51	X52	Y52	Z52	

88	0.87	-536.2288818359376	972.7175903320315	126.1973342895507	-711.5742187500001	990.5584716796877	208.5376892089843	-706.0736083984376	994.7254028320315	306.4794921874999	-529.6736450195314	986.1798095703127	368.3603820800781	-638.4741821289064	879.5819091796877	76.55132293701165	-707.1373291015626	471.8410034179689	110.9589614868163	-700.7687377929689	462.7999267578126	231.6734161376953	-747.6431884765626	411.1373291015626	108.3056945800781	-696.9744262695314	375.3504028320313	162.3094940185546	-931.0898437500002	119.2277145385742	169.555694580078	-895.195251464844	115.72509765625	258.0555725097656	-993.1646118164065	84.57211303710939	215.1171569824218	-798.9930419921877	20.67977905273438	229.3976135253906	-797.4141235351565	35.7466049194336	167.1602935791015	-855.9717407226565	28.33719062805176	122.8296890258788	-618.0672607421876	889.5564575195315	423.4937438964844	-464.5161132812502	484.5718383789064	398.4970703125001	-455.8770141601564	479.5583801269532	273.2046813964844	-455.904998779297	418.2069396972657	404.2871704101563	-389.3192749023439	425.4774780273439	342.7202453613281	-397.5360717773439	74.86521911621095	355.7047119140625	-361.6080627441407	102.019760131836	270.4773864746094	-431.4735717773439	25.70021057128907	301.089599609375	-227.317123413086	47.73406219482423	297.9085083007813	-235.1841888427736	49.45174789428712	351.1822509765625	-290.3616027832032	27.66613960266114	397.1906738281251	-651.5786132812501	1495.141967773438	241.0337524414062	-718.5554199218751	1270.29248046875	243.4445648193359	-486.8377685546877	1261.445434570313	257.6133117675781	-536.9663696289064	1414.231201171875	255.8196868896484	-737.3206787109376	1297.819213867188	143.0059356689453	-702.0107421875001	1422.494506835938	145.8731384277343	-639.0446777343751	1424.989135742188	61.88003921508783	-594.2593994140626	1425.008422851563	45.15706253051751	-560.0657958984376	1089.933715820313	-21.67126083374031	-613.1654052734376	1070.555419921875	47.9355278015136	-599.1140136718751	1049.065551757813	-8.292357444763258	-411.7167053222657	890.9531250000002	97.11699676513669	-419.0133361816407	868.2251586914065	23.76332664489741	-358.0990905761719	819.805358886719	119.8287582397461	-408.7535095214845	797.2363891601565	31.68398857116695	-752.2781982421876	1300.791381835938	317.7778015136718	-721.9828491210939	1422.024658203125	318.8949279785156	-696.3292846679689	1425.91552734375	417.5910339355469	-669.7947998046876	1422.067260742188	455.8914489746094	-718.1734619140627	1094.811645507813	505.9001159667969	-735.1933593750001	1088.49169921875	435.9027404785156	-747.7806396484377	1066.755859375	469.19921875	-595.988220214844	848.605895996094	487.4822998046876	-670.0422363281252	841.606872558594	522.8997192382812	-570.7811279296877	763.7781982421876	493.0960693359376	-668.775329589844	767.6707153320314	527.7300415039062	
89	0.88	-526.0401611328126	973.3066406250002	127.8693771362304	-701.3754882812501	991.3859863281252	210.1585693359375	-695.6747436523439	995.9930419921877	308.0926818847656	-519.3596191406251	987.7669677734377	369.9424743652344	-628.5093994140626	879.953308105469	78.30242156982416	-697.6610717773439	472.849822998047	110.6511001586913	-690.0987548828126	462.6067504882814	231.4893798828125	-739.3754272460939	412.8449096679689	108.0059432983398	-688.4938354492189	375.5747680664063	160.9282226562499	-928.130554199219	123.786605834961	168.4722900390624	-891.1536254882815	119.1961975097657	256.2449951171874	-990.4886474609377	90.68440246582033	214.5690917968749	-798.8476562500002	20.67525672912598	229.2131042480468	-797.2260742187502	35.59007263183594	166.7136535644531	-855.611999511719	28.68577575683594	122.7179870605468	-607.6688232421876	891.3269653320315	425.4141235351563	-456.5669555664064	485.3755798339845	399.3746643066407	-449.0650939941408	480.493133544922	274.11279296875	-448.3940429687502	418.8074645996095	405.0938110351563	-382.4564819335939	425.6083984375001	342.7269897460938	-395.5356445312502	74.84449768066408	355.8288879394531	-359.885467529297	101.306381225586	270.2306213378906	-430.9212646484377	26.26570510864259	301.53515625	-226.0208282470704	43.9718132019043	297.0691223144532	-233.4421691894532	46.26566314697266	350.7884521484375	-289.6401977539064	26.12420654296876	397.7607421875001	-643.0071411132814	1496.104370117188	243.2837524414062	-709.2128295898439	1270.962280273438	244.9935913085937	-477.6984863281252	1262.770751953125	259.4506225585938	-528.1874389648439	1415.462158203125	257.9507141113281	-728.1290893554689	1298.725463867188	144.7445220947265	-693.1605224609376	1423.54150390625	147.8662872314453	-630.1258544921876	1426.413452148438	63.92404174804681	-585.3998413085939	1426.589965820313	47.15880966186517	-552.6316528320314	1091.130981445313	-19.05634498596199	-605.7716064453126	1072.291748046875	50.58712768554682	-592.0777587890626	1050.7744140625	-5.67287111282356	-406.8816223144532	889.670349121094	98.71015930175778	-414.230926513672	867.5747070312502	25.13124465942379	-354.5936889648438	817.4422607421877	121.1878967285156	-405.1071777343751	796.3717041015627	32.58962631225582	-743.0688476562501	1301.15771484375	319.4320983886718	-713.1859130859376	1422.506958007813	320.9079284667968	-687.6129760742189	1426.29296875	419.6292419433594	-661.0926513671876	1422.43310546875	457.9398193359376	-708.9973754882815	1095.189086914063	507.3670043945312	-725.9831542968751	1089.019409179688	437.3851623535156	-738.622253417969	1067.313232421875	470.5911560058594	-587.6421508789065	848.6003417968752	489.0096740722657	-661.7354736328127	841.8682250976565	524.404541015625	-562.789489746094	763.6522827148439	494.5547485351563	-660.8443603515627	767.9541625976564	529.2390747070312	
90	0.89	-515.8625488281251	974.0217895507815	129.6696319580078	-691.1789550781251	992.3927001953127	211.8777770996093	-685.2326660156251	997.3776855468752	309.8235778808594	-509.0695190429689	989.4360961914065	371.6334838867188	-618.5094604492189	880.4584960937502	80.18492889404291	-687.6384887695314	473.9331665039064	110.0629730224609	-678.5269165039064	462.2179565429689	230.9171447753906	-730.5602416992189	414.6897277832032	107.4621963500976	-679.3873291015626	375.8153381347657	159.039566040039	-924.6673583984377	128.65673828125	167.3185882568359	-886.4686279296877	122.8405151367188	254.2424316406249	-987.2033691406252	97.20661926269534	214.1408233642578	-798.6018066406252	20.66835403442383	229.0479583740234	-796.9827880859377	35.40639114379884	166.2281188964843	-855.1364746093752	29.10712242126466	122.6496276855468	-597.3311157226564	893.192321777344	427.4284057617188	-448.8206787109377	486.2146911621095	400.2749023437501	-442.4091796875002	481.5264282226564	275.0532836914062	-441.1378784179689	419.436248779297	405.8844299316407	-375.8161621093751	425.8045043945314	342.8056030273438	-393.6987915039064	74.94791412353517	355.922119140625	-358.391571044922	100.8023071289063	269.9785461425781	-430.3572082519533	26.82199668884278	301.9678039550781	-224.9200286865235	40.74980163574219	296.1373291015626	-231.8923950195314	43.72578048706055	350.3232727050782	-288.959686279297	25.0895175933838	398.2763366699219	-634.4371948242189	1497.186157226563	245.5341186523437	-699.8593750000001	1271.740234375	246.5605010986328	-468.5581054687502	1264.229248046875	261.313232421875	-519.4154663085939	1416.830200195313	260.0871887207031	-718.8800048828126	1299.742065429688	146.4559783935546	-684.2961425781251	1424.691040039063	149.8574218749999	-621.1938476562501	1427.990844726563	65.98033142089838	-576.5355224609376	1428.352661132813	49.16772460937494	-545.2375488281251	1092.538330078125	-16.54365921020515	-598.3746337890626	1074.237915039063	53.15671920776362	-585.0842285156251	1052.701538085938	-3.153768777847362	-402.0664062500001	888.6374511718752	100.0995254516601	-409.4545288085939	867.1881103515627	26.31716537475582	-351.0984802246094	815.340515136719	122.3351745605469	-401.4968566894532	795.778991699219	33.32245254516597	-733.8394775390626	1301.64599609375	321.0925292968749	-704.3914184570314	1423.0947265625	322.9026184082031	-678.9143066406251	1426.8095703125	421.6451721191407	-652.4199218750001	1422.954956054688	459.9681396484376	-699.786560058594	1095.725341796875	508.8497619628906	-716.7061767578126	1089.676513671875	438.8887023925781	-729.3882446289065	1067.999145507813	472.0013427734375	-579.157409667969	848.7930908203127	490.6418457031251	-653.304382324219	842.3072509765627	525.9840087890625	-554.6347656250002	763.7294311523439	496.1410522460938	-652.753845214844	768.4182128906252	530.8373413085938	
91	0.9	-505.7619628906251	974.840026855469	131.5791473388672	-681.0377197265626	993.5476074218752	213.7058715820312	-674.8071899414064	998.8470458984377	311.677734375	-498.831756591797	991.1384887695315	373.4157409667969	-608.5413208007814	881.080505371094	82.19434356689447	-677.0420532226564	475.0459899902345	109.1761398315429	-666.0305786132814	461.5989685058595	229.9159240722656	-721.1365966796876	416.6209106445314	106.6459579467773	-669.6127929687501	376.0375671386719	156.6339416503906	-920.6256103515627	133.8121185302735	166.0929412841796	-881.103698730469	126.6375350952149	252.061538696289	-983.2258911132815	104.1333618164063	213.8256072998046	-798.2351684570315	20.69799041748047	228.9216918945312	-796.6655883789065	35.21863555908204	165.7268829345703	-854.502380371094	29.64253234863282	122.6420822143554	-587.0794677734376	895.100769042969	429.5268249511719	-441.2848205566408	487.0569763183595	401.1799926757813	-435.9005432128908	482.6221923828126	276.0133361816406	-434.1507568359377	420.0620117187501	406.6455383300782	-369.3998413085939	426.020233154297	342.944580078125	-392.0661926269533	75.13339996337892	355.9655151367188	-357.1324462890626	100.4600830078125	269.7082824707031	-429.8111877441408	27.32753944396973	302.3658752441406	-224.0169830322266	38.03968048095704	295.1409301757813	-230.5572967529298	41.79723358154298	349.7989501953126	-288.3375244140626	24.50462532043458	398.7012939453126	-625.8737182617189	1498.351196289063	247.7821655273437	-690.5175170898439	1272.6005859375	248.1635284423828	-459.4256896972658	1265.781372070313	263.1963806152344	-510.6581115722658	1418.294311523438	262.2269897460938	-709.5952758789064	1300.83984375	148.1477661132812	-675.4277343750001	1425.910766601563	151.8489227294921	-612.2580566406251	1429.6796875	68.05002593994135	-567.6714477539064	1430.246826171875	51.1891136169433	-537.8882446289064	1094.119506835938	-14.16353607177741	-590.9876098632814	1076.345458984375	55.61248779296869	-578.1306152343751	1054.798095703125	-0.7664545178414102	-397.2394104003907	887.855651855469	101.2903747558594	-404.6410217285157	867.058044433594	27.325174331665	-347.5742187500001	813.5090332031252	123.2942657470703	-397.8719787597657	795.4528808593752	33.89628982543941	-724.6046752929689	1302.234375	322.7723083496093	-695.6050415039064	1423.762939453125	324.8829650878906	-670.2366943359376	1427.44384765625	423.6410522460938	-643.7811279296876	1423.61181640625	461.9779052734376	-690.5634765625002	1096.3974609375	510.3481140136719	-707.3836669921876	1090.441040039063	440.4107666015625	-720.1066894531252	1068.789672851563	473.4269409179688	-570.527038574219	849.1716308593752	492.3789672851563	-644.7438964843752	842.902282714844	527.6295776367188	-546.3017578125002	763.9989624023439	497.8541259765626	-644.4898681640627	769.038757324219	532.5106201171875	
